<svg id="visual" viewBox="0 0 540 960" width="540" height="960" xmlns="http://www.w3.org/2000/svg" xmlns:xlink="http://www.w3.org/1999/xlink" version="1.1"><rect x="0" y="0" width="540" height="960" fill="#210021"></rect><defs><linearGradient id="grad1_0" x1="0%" y1="100%" x2="100%" y2="0%"><stop offset="30%" stop-color="#210021" stop-opacity="1"></stop><stop offset="70%" stop-color="#210021" stop-opacity="1"></stop></linearGradient></defs><defs><linearGradient id="grad2_0" x1="0%" y1="100%" x2="100%" y2="0%"><stop offset="30%" stop-color="#210021" stop-opacity="1"></stop><stop offset="70%" stop-color="#210021" stop-opacity="1"></stop></linearGradient></defs><g transform="translate(540, 960)"><path d="M-378 0C-345.9 -25.2 -313.8 -50.4 -310.1 -83.1C-306.4 -115.8 -331.1 -156 -327.4 -189C-323.6 -222 -291.4 -247.6 -256.7 -256.7C-222 -265.7 -184.8 -258.2 -159.5 -276.3C-134.2 -294.4 -120.9 -338.1 -96.3 -359.3C-71.7 -380.6 -35.8 -379.3 0 -378L0 0Z" fill="#FBAE3C"></path></g><g transform="translate(0, 0)"><path d="M378 0C359.4 27.9 340.8 55.9 337.1 90.3C333.4 124.8 344.6 165.7 327.4 189C310.1 212.3 264.5 218.1 236.2 236.2C207.8 254.3 196.8 284.7 175.5 304C154.2 323.3 122.6 331.5 91.6 341.9C60.7 352.4 30.3 365.2 0 378L0 0Z" fill="#FBAE3C"></path></g></svg>