<svg id="visual" viewBox="0 0 960 300" width="960" height="300" xmlns="http://www.w3.org/2000/svg" xmlns:xlink="http://www.w3.org/1999/xlink" version="1.1"><rect x="0" y="0" width="960" height="300" fill="#210021"></rect><path d="M0 136L16 136.3C32 136.7 64 137.3 96 140.7C128 144 160 150 192 155.5C224 161 256 166 288 163.5C320 161 352 151 384 150C416 149 448 157 480 158.3C512 159.7 544 154.3 576 145C608 135.7 640 122.3 672 117.8C704 113.3 736 117.7 768 124.3C800 131 832 140 864 145.3C896 150.7 928 152.3 944 153.2L960 154L960 0L944 0C928 0 896 0 864 0C832 0 800 0 768 0C736 0 704 0 672 0C640 0 608 0 576 0C544 0 512 0 480 0C448 0 416 0 384 0C352 0 320 0 288 0C256 0 224 0 192 0C160 0 128 0 96 0C64 0 32 0 16 0L0 0Z" fill="#9069fa"></path><path d="M0 76L16 88.8C32 101.7 64 127.3 96 127.5C128 127.7 160 102.3 192 96.3C224 90.3 256 103.7 288 110.5C320 117.3 352 117.7 384 117C416 116.3 448 114.7 480 117.2C512 119.7 544 126.3 576 133.3C608 140.3 640 147.7 672 143.5C704 139.3 736 123.7 768 122.8C800 122 832 136 864 138C896 140 928 130 944 125L960 120L960 0L944 0C928 0 896 0 864 0C832 0 800 0 768 0C736 0 704 0 672 0C640 0 608 0 576 0C544 0 512 0 480 0C448 0 416 0 384 0C352 0 320 0 288 0C256 0 224 0 192 0C160 0 128 0 96 0C64 0 32 0 16 0L0 0Z" fill="#815dfb"></path><path d="M0 64L16 68.7C32 73.3 64 82.7 96 87.5C128 92.3 160 92.7 192 97.7C224 102.7 256 112.3 288 118.5C320 124.7 352 127.3 384 128C416 128.7 448 127.3 480 125.2C512 123 544 120 576 116.8C608 113.7 640 110.3 672 104C704 97.7 736 88.3 768 82.7C800 77 832 75 864 82.8C896 90.7 928 108.3 944 117.2L960 126L960 0L944 0C928 0 896 0 864 0C832 0 800 0 768 0C736 0 704 0 672 0C640 0 608 0 576 0C544 0 512 0 480 0C448 0 416 0 384 0C352 0 320 0 288 0C256 0 224 0 192 0C160 0 128 0 96 0C64 0 32 0 16 0L0 0Z" fill="#7151fc"></path><path d="M0 61L16 60.8C32 60.7 64 60.3 96 63.5C128 66.7 160 73.3 192 79.8C224 86.3 256 92.7 288 88.2C320 83.7 352 68.3 384 65C416 61.7 448 70.3 480 70.5C512 70.7 544 62.3 576 60.3C608 58.3 640 62.7 672 67.5C704 72.3 736 77.7 768 74.5C800 71.3 832 59.7 864 56.3C896 53 928 58 944 60.5L960 63L960 0L944 0C928 0 896 0 864 0C832 0 800 0 768 0C736 0 704 0 672 0C640 0 608 0 576 0C544 0 512 0 480 0C448 0 416 0 384 0C352 0 320 0 288 0C256 0 224 0 192 0C160 0 128 0 96 0C64 0 32 0 16 0L0 0Z" fill="#5c45fd"></path><path d="M0 44L16 45.8C32 47.7 64 51.3 96 56.5C128 61.7 160 68.3 192 70C224 71.7 256 68.3 288 62.7C320 57 352 49 384 48.3C416 47.7 448 54.3 480 55.2C512 56 544 51 576 52.2C608 53.3 640 60.7 672 65.2C704 69.7 736 71.3 768 66.7C800 62 832 51 864 49.8C896 48.7 928 57.3 944 61.7L960 66L960 0L944 0C928 0 896 0 864 0C832 0 800 0 768 0C736 0 704 0 672 0C640 0 608 0 576 0C544 0 512 0 480 0C448 0 416 0 384 0C352 0 320 0 288 0C256 0 224 0 192 0C160 0 128 0 96 0C64 0 32 0 16 0L0 0Z" fill="#413afe"></path><path d="M0 32L16 30C32 28 64 24 96 22.5C128 21 160 22 192 21.7C224 21.3 256 19.7 288 24.2C320 28.7 352 39.3 384 39C416 38.7 448 27.3 480 27C512 26.7 544 37.3 576 43C608 48.7 640 49.3 672 46.8C704 44.3 736 38.7 768 33.8C800 29 832 25 864 22.3C896 19.7 928 18.3 944 17.7L960 17L960 0L944 0C928 0 896 0 864 0C832 0 800 0 768 0C736 0 704 0 672 0C640 0 608 0 576 0C544 0 512 0 480 0C448 0 416 0 384 0C352 0 320 0 288 0C256 0 224 0 192 0C160 0 128 0 96 0C64 0 32 0 16 0L0 0Z" fill="#002eff"></path></svg>