<svg id="visual" viewBox="0 0 960 540" width="960" height="540" xmlns="http://www.w3.org/2000/svg" xmlns:xlink="http://www.w3.org/1999/xlink" version="1.1"><rect x="0" y="0" width="960" height="540" fill="#210021"></rect><defs><linearGradient id="grad1_0" x1="43.8%" y1="100%" x2="100%" y2="0%"><stop offset="14.444444444444446%" stop-color="#210021" stop-opacity="1"></stop><stop offset="85.55555555555554%" stop-color="#210021" stop-opacity="1"></stop></linearGradient></defs><defs><linearGradient id="grad2_0" x1="0%" y1="100%" x2="56.3%" y2="0%"><stop offset="14.444444444444446%" stop-color="#210021" stop-opacity="1"></stop><stop offset="85.55555555555554%" stop-color="#210021" stop-opacity="1"></stop></linearGradient></defs><g transform="translate(960, 540)"><path d="M-378 0C-373.5 -32.8 -369 -65.7 -357.4 -95.8C-345.8 -125.8 -327.1 -153.2 -305.7 -176.5C-284.3 -199.8 -260.3 -219.2 -237.6 -237.6C-214.9 -256 -193.6 -273.4 -171.5 -297C-149.4 -320.7 -126.5 -350.6 -97.8 -365.1C-69.1 -379.7 -34.6 -378.8 0 -378L0 0Z" fill="#FBAE3C"></path></g><g transform="translate(0, 0)"><path d="M378 0C381.3 36.2 384.6 72.3 365.1 97.8C345.6 123.3 303.3 138.1 281.5 162.5C259.6 186.9 258.3 220.8 240.4 240.4C222.5 260.1 188 265.5 161 278.9C134 292.2 114.4 313.5 88.8 331.3C63.2 349.2 31.6 363.6 0 378L0 0Z" fill="#FBAE3C"></path></g></svg>