<svg id="visual" viewBox="0 0 960 150" width="960" height="150" xmlns="http://www.w3.org/2000/svg" xmlns:xlink="http://www.w3.org/1999/xlink" version="1.1"><rect x="0" y="0" width="960" height="150" fill="#210021"></rect><path d="M0 24L14.5 26.3C29 28.7 58 33.3 87.2 34.2C116.3 35 145.7 32 174.8 34.8C204 37.7 233 46.3 262 48C291 49.7 320 44.3 349 45.2C378 46 407 53 436.2 53.8C465.3 54.7 494.7 49.3 523.8 48.3C553 47.3 582 50.7 611 53.2C640 55.7 669 57.3 698 59.5C727 61.7 756 64.3 785.2 58.8C814.3 53.3 843.7 39.7 872.8 38.8C902 38 931 50 945.5 56L960 62L960 151L945.5 151C931 151 902 151 872.8 151C843.7 151 814.3 151 785.2 151C756 151 727 151 698 151C669 151 640 151 611 151C582 151 553 151 523.8 151C494.7 151 465.3 151 436.2 151C407 151 378 151 349 151C320 151 291 151 262 151C233 151 204 151 174.8 151C145.7 151 116.3 151 87.2 151C58 151 29 151 14.5 151L0 151Z" fill="#07009c"></path><path d="M0 66L14.5 66.7C29 67.3 58 68.7 87.2 65.8C116.3 63 145.7 56 174.8 52.7C204 49.3 233 49.7 262 51.8C291 54 320 58 349 57.5C378 57 407 52 436.2 50C465.3 48 494.7 49 523.8 55.3C553 61.7 582 73.3 611 77.7C640 82 669 79 698 74.5C727 70 756 64 785.2 66C814.3 68 843.7 78 872.8 81.3C902 84.7 931 81.3 945.5 79.7L960 78L960 151L945.5 151C931 151 902 151 872.8 151C843.7 151 814.3 151 785.2 151C756 151 727 151 698 151C669 151 640 151 611 151C582 151 553 151 523.8 151C494.7 151 465.3 151 436.2 151C407 151 378 151 349 151C320 151 291 151 262 151C233 151 204 151 174.8 151C145.7 151 116.3 151 87.2 151C58 151 29 151 14.5 151L0 151Z" fill="#0057d0"></path><path d="M0 100L14.5 96.7C29 93.3 58 86.7 87.2 87.3C116.3 88 145.7 96 174.8 95C204 94 233 84 262 83.5C291 83 320 92 349 94.8C378 97.7 407 94.3 436.2 91.3C465.3 88.3 494.7 85.7 523.8 85.2C553 84.7 582 86.3 611 89C640 91.7 669 95.3 698 96.5C727 97.7 756 96.3 785.2 92.7C814.3 89 843.7 83 872.8 81.7C902 80.3 931 83.7 945.5 85.3L960 87L960 151L945.5 151C931 151 902 151 872.8 151C843.7 151 814.3 151 785.2 151C756 151 727 151 698 151C669 151 640 151 611 151C582 151 553 151 523.8 151C494.7 151 465.3 151 436.2 151C407 151 378 151 349 151C320 151 291 151 262 151C233 151 204 151 174.8 151C145.7 151 116.3 151 87.2 151C58 151 29 151 14.5 151L0 151Z" fill="#0097f2"></path><path d="M0 106L14.5 103.5C29 101 58 96 87.2 96.3C116.3 96.7 145.7 102.3 174.8 104.7C204 107 233 106 262 106.3C291 106.7 320 108.3 349 110.5C378 112.7 407 115.3 436.2 112.3C465.3 109.3 494.7 100.7 523.8 98.2C553 95.7 582 99.3 611 101.3C640 103.3 669 103.7 698 103.8C727 104 756 104 785.2 105C814.3 106 843.7 108 872.8 107.2C902 106.3 931 102.7 945.5 100.8L960 99L960 151L945.5 151C931 151 902 151 872.8 151C843.7 151 814.3 151 785.2 151C756 151 727 151 698 151C669 151 640 151 611 151C582 151 553 151 523.8 151C494.7 151 465.3 151 436.2 151C407 151 378 151 349 151C320 151 291 151 262 151C233 151 204 151 174.8 151C145.7 151 116.3 151 87.2 151C58 151 29 151 14.5 151L0 151Z" fill="#00d0fd"></path><path d="M0 129L14.5 129.7C29 130.3 58 131.7 87.2 129.5C116.3 127.3 145.7 121.7 174.8 120.8C204 120 233 124 262 124C291 124 320 120 349 119.8C378 119.7 407 123.3 436.2 125C465.3 126.7 494.7 126.3 523.8 123.8C553 121.3 582 116.7 611 115.3C640 114 669 116 698 117.7C727 119.3 756 120.7 785.2 120.7C814.3 120.7 843.7 119.3 872.8 120.5C902 121.7 931 125.3 945.5 127.2L960 129L960 151L945.5 151C931 151 902 151 872.8 151C843.7 151 814.3 151 785.2 151C756 151 727 151 698 151C669 151 640 151 611 151C582 151 553 151 523.8 151C494.7 151 465.3 151 436.2 151C407 151 378 151 349 151C320 151 291 151 262 151C233 151 204 151 174.8 151C145.7 151 116.3 151 87.2 151C58 151 29 151 14.5 151L0 151Z" fill="#00fdcf"></path></svg>